<!DOCTYPE svg PUBLIC "-//W3C//DTD SVG 1.1//EN" "http://www.w3.org/Graphics/SVG/1.1/DTD/svg11.dtd">
<!-- Uploaded to: SVG Repo, www.svgrepo.com, Transformed by: SVG Repo Mixer Tools -->
<svg width="800px" height="800px" viewBox="-1.2 -1.2 26.40 26.40" fill="none" xmlns="http://www.w3.org/2000/svg" stroke="#ffffff">
<g id="SVGRepo_bgCarrier" stroke-width="0"/>
<g id="SVGRepo_tracerCarrier" stroke-linecap="round" stroke-linejoin="round"/>
<g id="SVGRepo_iconCarrier"> <g id="style=bulk"> <g id="bookmark"> <path id="vector (Stroke)" fill-rule="evenodd" clip-rule="evenodd" d="M3.25 6C3.25 3.37665 5.37665 1.25 8 1.25H16C18.6234 1.25 20.75 3.37665 20.75 6V20.4648C20.75 21.7269 19.7269 22.75 18.4648 22.75C18.0137 22.75 17.5726 22.6165 17.1972 22.3662L12.6934 19.3636C12.2735 19.0837 11.7265 19.0837 11.3066 19.3636L6.80278 22.3662C6.42739 22.6165 5.98634 22.75 5.53518 22.75C4.27311 22.75 3.25 21.7269 3.25 20.4648V6Z" fill="#000000"/> <path id="line (Stroke)" fill-rule="evenodd" clip-rule="evenodd" d="M8.25 7.5C8.25 7.08579 8.58579 6.75 9 6.75H15C15.4142 6.75 15.75 7.08579 15.75 7.5C15.75 7.91421 15.4142 8.25 15 8.25H9C8.58579 8.25 8.25 7.91421 8.25 7.5Z" fill="#000000"/> </g> </g> </g>
</svg>